<svg width="1024" height="220" viewBox="0 0 1024 220" fill="none" xmlns="http://www.w3.org/2000/svg">
<path d="M267.945 167.731H314.905C342.254 167.731 359.527 154.103 359.527 133.123C359.527 117.522 352.69 106.404 332.178 101.563C347.652 95.8246 352.51 87.2173 352.51 75.203C352.51 55.6573 337.756 42.2085 310.407 42.2085H267.945V167.731ZM293.134 145.137V114.474H312.566C326.241 114.474 333.978 120.032 333.978 129.178C333.978 140.116 326.241 145.137 312.566 145.137H293.134ZM293.134 94.0314V64.6232H308.068C321.743 64.6232 326.96 70.5407 326.96 79.148C326.96 89.1898 321.743 94.0314 308.068 94.0314H293.134ZM378.999 205.208C400.95 205.208 412.645 192.477 420.562 173.649L461.945 74.4857H433.157L414.984 127.743C413.365 132.226 411.925 137.785 411.026 142.627C410.126 137.785 408.687 132.226 407.067 127.743L388.895 74.4857H359.567L396.632 163.427L395.372 167.372C392.673 175.621 386.736 181.539 377.38 181.539C373.421 181.539 370.003 181.18 366.404 180.283L362.806 203.415C367.664 204.85 374.141 205.208 378.999 205.208Z" fill="white"/>
<path d="M509.624 167.881H522.918V146.401H512.858C508.187 146.401 505.312 143.716 505.312 137.809V95.3848H525.074V74.7993H505.312V53.4979L481.059 56.0039V74.7993H467.945V95.3848H481.059V139.062C481.059 159.289 491.12 167.881 509.624 167.881ZM575.459 170.208C593.963 170.208 609.592 161.974 617.138 150.339L598.274 136.198C593.963 143.358 585.878 148.728 575.459 148.728C563.242 148.728 554.978 141.031 552.283 130.112H622.168C622.707 127.069 622.887 124.204 622.887 121.519C622.887 94.6688 603.484 72.4723 575.459 72.4723C547.433 72.4723 527.132 94.6688 527.132 121.519C527.132 148.37 546.535 170.208 575.459 170.208ZM552.283 112.032C554.978 100.934 563.602 93.2368 575.099 93.2368C586.956 93.2368 595.759 101.65 598.454 112.032H552.283ZM687.249 170.208C712.939 170.208 733.42 148.549 733.42 121.698C733.42 94.8478 712.939 72.8303 687.249 72.8303C671.26 72.8303 662.817 79.2744 657.786 89.1197V37.2085H633.533V167.881H657.068V152.666C662.098 163.227 670.542 170.208 687.249 170.208ZM657.068 121.698C657.068 107.199 667.308 94.6688 683.297 94.6688C698.747 94.6688 709.167 107.02 709.167 121.519C709.167 135.661 698.747 148.37 683.297 148.37C667.308 148.37 657.068 136.198 657.068 121.698ZM785.937 170.208C802.645 170.208 811.088 163.227 816.119 152.666V167.881H839.653V74.7993H815.58V89.4777C810.549 79.4534 802.106 72.8303 785.937 72.8303C760.247 72.8303 739.767 94.8478 739.767 121.698C739.767 148.549 760.247 170.208 785.937 170.208ZM764.02 121.519C764.02 107.02 774.439 94.6688 789.889 94.6688C805.878 94.6688 816.119 107.199 816.119 121.698C816.119 136.198 805.878 148.37 789.889 148.37C774.439 148.37 764.02 135.661 764.02 121.519ZM886.04 170.208C906.7 170.208 922.33 157.32 922.33 140.136C922.33 126.173 916.042 116.149 888.915 109.168C877.776 106.304 876.339 103.44 876.339 100.218C876.339 94.4898 881.369 91.9837 888.016 91.9837C894.304 91.9837 900.053 94.8478 904.544 102.008L922.15 88.5827C912.629 76.2314 902.568 72.4723 887.477 72.4723C865.56 72.4723 852.625 84.6446 852.625 100.934C852.625 112.748 856.398 124.025 881.369 129.933C896.101 133.334 898.436 136.019 898.436 140.852C898.436 146.401 893.765 150.518 885.501 150.518C877.597 150.518 870.411 146.759 863.584 139.062L847.235 153.919C857.476 164.838 870.231 170.208 886.04 170.208ZM976.517 170.208C995.021 170.208 1010.65 161.974 1018.2 150.339L999.332 136.198C995.021 143.358 986.936 148.728 976.517 148.728C964.3 148.728 956.036 141.031 953.342 130.112H1023.23C1023.77 127.069 1023.94 124.204 1023.94 121.519C1023.94 94.6688 1004.54 72.4723 976.517 72.4723C948.491 72.4723 928.19 94.6688 928.19 121.519C928.19 148.37 947.593 170.208 976.517 170.208ZM953.342 112.032C956.036 100.934 964.66 93.2368 976.157 93.2368C988.014 93.2368 996.817 101.65 999.512 112.032H953.342Z" fill="white"/>
<path d="M63.3182 209.286C40.9935 198.863 22.8237 181.221 11.7365 159.201C0.649395 137.179 -2.70929 112.063 2.20168 87.8978C7.11264 63.733 20.0073 41.927 38.8077 25.9936C57.6082 10.0604 81.2196 0.927572 105.837 0.0669197C130.455 -0.793732 154.645 6.66803 174.511 21.2495C194.375 35.8312 208.758 56.6835 215.339 80.4466C221.924 104.21 220.322 129.499 210.797 152.241C201.271 174.982 184.374 193.851 162.831 205.806L109.664 109.786L63.3182 209.286Z" fill="white"/>
<path d="M162.726 205.864C147.617 214.226 130.748 218.901 113.494 219.504C96.24 220.108 79.0873 216.625 63.4319 209.338L109.665 109.785L162.726 205.864Z" fill="#111827"/>
<path d="M47.9785 64.5504H172.557V117.247C172.557 130.949 169.34 141.254 162.907 148.162C156.59 155.19 148.402 158.703 138.342 158.703C131.908 158.703 126.293 157.123 121.497 153.961C116.818 150.915 113.251 146.7 110.794 141.314C108.572 147.167 105.062 151.793 100.266 155.19C95.4705 158.703 89.7972 160.46 83.2466 160.46C72.2509 160.46 63.5947 156.947 57.2781 149.92C51.0784 142.894 47.9785 132.764 47.9785 119.531V64.5504ZM149.572 89.4936H122.55V117.072C122.55 122.107 123.661 125.972 125.884 128.665C128.224 131.476 131.616 132.88 136.061 132.88C140.038 132.88 143.255 131.535 145.711 128.842C148.284 126.265 149.572 122.341 149.572 117.072V89.4936ZM99.3891 89.4936H70.9642V118.828C70.9642 124.098 72.1924 128.022 74.6489 130.598C77.1054 133.291 80.6146 134.637 85.1766 134.637C89.5047 134.637 92.9555 133.291 95.529 130.598C98.1024 128.022 99.3891 124.098 99.3891 118.828V89.4936Z" fill="#111827"/>
</svg>
