<svg width="1024" height="220" viewBox="0 0 1024 220" fill="none" xmlns="http://www.w3.org/2000/svg">
<path d="M268 167.731H314.961C342.309 167.731 359.582 154.103 359.582 133.123C359.582 117.522 352.745 106.404 332.234 101.563C347.707 95.8246 352.565 87.2173 352.565 75.203C352.565 55.6573 337.811 42.2085 310.463 42.2085H268V167.731ZM293.19 145.137V114.474H312.622C326.296 114.474 334.033 120.032 334.033 129.178C334.033 140.116 326.296 145.137 312.622 145.137H293.19ZM293.19 94.0314V64.6232H308.123C321.798 64.6232 327.016 70.5407 327.016 79.148C327.016 89.1898 321.798 94.0314 308.123 94.0314H293.19ZM379.054 205.208C401.005 205.208 412.7 192.477 420.617 173.649L462 74.4857H433.212L415.039 127.743C413.42 132.226 411.981 137.785 411.081 142.627C410.181 137.785 408.742 132.226 407.123 127.743L388.95 74.4857H359.622L396.687 163.427L395.427 167.372C392.729 175.621 386.791 181.539 377.435 181.539C373.476 181.539 370.058 181.18 366.459 180.283L362.861 203.415C367.719 204.85 374.196 205.208 379.054 205.208Z" fill="#111827"/>
<path d="M509.679 167.881H522.973V146.401H512.913C508.242 146.401 505.368 143.716 505.368 137.809V95.3848H525.129V74.7993H505.368V53.4979L481.115 56.0039V74.7993H468V95.3848H481.115V139.062C481.115 159.289 491.175 167.881 509.679 167.881ZM575.514 170.208C594.018 170.208 609.648 161.974 617.193 150.339L598.33 136.198C594.018 143.358 585.934 148.728 575.514 148.728C563.298 148.728 555.034 141.031 552.339 130.112H622.223C622.762 127.069 622.942 124.204 622.942 121.519C622.942 94.6688 603.539 72.4723 575.514 72.4723C547.488 72.4723 527.188 94.6688 527.188 121.519C527.188 148.37 546.59 170.208 575.514 170.208ZM552.339 112.032C555.034 100.934 563.657 93.2368 575.155 93.2368C587.012 93.2368 595.814 101.65 598.509 112.032H552.339ZM687.305 170.208C712.995 170.208 733.475 148.549 733.475 121.698C733.475 94.8478 712.995 72.8303 687.305 72.8303C671.316 72.8303 662.872 79.2744 657.842 89.1197V37.2085H633.589V167.881H657.123V152.666C662.153 163.227 670.597 170.208 687.305 170.208ZM657.123 121.698C657.123 107.199 667.363 94.6688 683.352 94.6688C698.802 94.6688 709.222 107.02 709.222 121.519C709.222 135.661 698.802 148.37 683.352 148.37C667.363 148.37 657.123 136.198 657.123 121.698ZM785.992 170.208C802.7 170.208 811.144 163.227 816.174 152.666V167.881H839.708V74.7993H815.635V89.4777C810.605 79.4534 802.161 72.8303 785.992 72.8303C760.302 72.8303 739.822 94.8478 739.822 121.698C739.822 148.549 760.302 170.208 785.992 170.208ZM764.075 121.519C764.075 107.02 774.495 94.6688 789.945 94.6688C805.934 94.6688 816.174 107.199 816.174 121.698C816.174 136.198 805.934 148.37 789.945 148.37C774.495 148.37 764.075 135.661 764.075 121.519ZM886.096 170.208C906.756 170.208 922.385 157.32 922.385 140.136C922.385 126.173 916.097 116.149 888.97 109.168C877.832 106.304 876.394 103.44 876.394 100.218C876.394 94.4898 881.425 91.9837 888.072 91.9837C894.36 91.9837 900.108 94.8478 904.6 102.008L922.206 88.5827C912.684 76.2314 902.624 72.4723 887.533 72.4723C865.615 72.4723 852.68 84.6446 852.68 100.934C852.68 112.748 856.453 124.025 881.425 129.933C896.156 133.334 898.492 136.019 898.492 140.852C898.492 146.401 893.821 150.518 885.557 150.518C877.652 150.518 870.466 146.759 863.639 139.062L847.291 153.919C857.531 164.838 870.286 170.208 886.096 170.208ZM976.572 170.208C995.076 170.208 1010.71 161.974 1018.25 150.339L999.388 136.198C995.076 143.358 986.992 148.728 976.572 148.728C964.356 148.728 956.092 141.031 953.397 130.112H1023.28C1023.82 127.069 1024 124.204 1024 121.519C1024 94.6688 1004.6 72.4723 976.572 72.4723C948.546 72.4723 928.246 94.6688 928.246 121.519C928.246 148.37 947.648 170.208 976.572 170.208ZM953.397 112.032C956.092 100.934 964.715 93.2368 976.213 93.2368C988.07 93.2368 996.873 101.65 999.567 112.032H953.397Z" fill="#111827"/>
<path d="M63.3735 209.286C41.0488 198.863 22.879 181.221 11.7918 159.201C0.704692 137.179 -2.65399 112.063 2.25697 87.8978C7.16794 63.733 20.0626 41.927 38.863 25.9936C57.6635 10.0604 81.2749 0.927572 105.892 0.0669197C130.51 -0.793732 154.7 6.66803 174.566 21.2495C194.43 35.8312 208.813 56.6835 215.395 80.4466C221.979 104.21 220.378 129.499 210.852 152.241C201.326 174.982 184.429 193.851 162.886 205.806L109.72 109.786L63.3735 209.286Z" fill="#111827"/>
<path d="M162.781 205.864C147.672 214.226 130.804 218.901 113.549 219.504C96.2953 220.108 79.1426 216.625 63.4872 209.338L109.72 109.785L162.781 205.864Z" fill="white"/>
<path d="M48.0338 64.5504H172.612V117.247C172.612 130.949 169.396 141.254 162.962 148.162C156.645 155.19 148.458 158.703 138.397 158.703C131.964 158.703 126.349 157.123 121.553 153.961C116.874 150.915 113.306 146.7 110.85 141.314C108.627 147.167 105.118 151.793 100.322 155.19C95.5258 158.703 89.8525 160.46 83.3019 160.46C72.3062 160.46 63.65 156.947 57.3333 149.92C51.1337 142.894 48.0338 132.764 48.0338 119.531V64.5504ZM149.627 89.4936H122.606V117.072C122.606 122.107 123.717 125.972 125.939 128.665C128.279 131.476 131.671 132.88 136.116 132.88C140.093 132.88 143.31 131.535 145.767 128.842C148.34 126.265 149.627 122.341 149.627 117.072V89.4936ZM99.4444 89.4936H71.0194V118.828C71.0194 124.098 72.2477 128.022 74.7042 130.598C77.1607 133.291 80.6699 134.637 85.2319 134.637C89.56 134.637 93.0108 133.291 95.5843 130.598C98.1577 128.022 99.4444 124.098 99.4444 118.828V89.4936Z" fill="white"/>
</svg>
