<?xml version="1.0" encoding="UTF-8"?><svg id="Ebene_1" xmlns="http://www.w3.org/2000/svg" viewBox="0 0 1555.62 275.03"><defs><style>.cls-1{stroke:#41404a;stroke-miterlimit:10;stroke-width:3px;}.cls-1,.cls-2{fill:#41404a;}.cls-3{fill:#4ec1ec;}</style></defs><g><g><path class="cls-1" d="M453.36,59.31c-6.64-30.99-32.47-36.65-49.44-36.65-31.98,0-57.81,23.61-57.81,70.11,0,41.57,14.76,73.55,58.55,73.55,15.5,0,42.31-7.38,50.43-48.46h23.12c-9.84,66.66-63.96,69.61-77.24,69.61-40.1,0-79.45-26.07-79.45-93.97,0-54.36,30.99-92,82.41-92,45.51,0,69.12,28.29,72.57,57.81h-23.12Z"/><path class="cls-1" d="M562.57,182.79h-23.86V111.7L472.05,6.17h27.8l50.67,84.87L601.19,6.17h28.04l-66.66,105.53v71.09Z"/><path class="cls-1" d="M641.04,6.17h77.73c32.96,0,49.94,20.42,49.94,44.52,0,11.56-4.18,27.8-23.61,36.9,11.56,4.67,31.98,12.79,31.98,43.05,0,28.29-20.91,52.15-60.02,52.15h-76.01V6.17Zm23.86,74.78h43.05c22.88,0,36.9-6.89,36.9-28.53,0-16.48-10.09-25.83-36.65-25.83h-43.29v54.36Zm0,81.42h50.92c24.84,0,37.39-12.55,37.39-32.22,0-24.84-21.89-29.76-41.33-29.76h-46.98v61.99Z"/><path class="cls-1" d="M928.59,182.79h-130.37V6.17h128.65V27.33h-104.79v54.12h96.67v21.15h-96.67v59.04h106.51v21.16Z"/><path class="cls-1" d="M976.8,182.79h-23.86V6.17h81.67c29.03,0,58.05,10.09,58.05,47.48,0,26.07-13.28,35.67-24.6,42.31,10.09,4.18,20.17,8.61,21.16,33.21l1.48,31.98c.25,9.84,1.48,13.53,8.86,17.71v3.94h-29.27c-3.44-10.82-4.18-37.64-4.18-44.28,0-14.51-2.95-31.49-31.49-31.49h-57.81v75.76Zm0-96.18h55.35c17.47,0,35.91-4.43,35.91-30.5s-19.92-29.52-31.73-29.52h-59.53v60.02Z"/><path class="cls-1" d="M1095.12,6.17h143.41V27.33h-59.77V182.79h-23.86V27.33h-59.77V6.17Z"/><path class="cls-1" d="M1383.66,182.79h-130.37V6.17h128.65V27.33h-104.79v54.12h96.67v21.15h-96.67v59.04h106.51v21.16Z"/><path class="cls-1" d="M1529.03,59.31c-6.64-30.99-32.47-36.65-49.44-36.65-31.98,0-57.81,23.61-57.81,70.11,0,41.57,14.76,73.55,58.54,73.55,15.5,0,42.31-7.38,50.43-48.46h23.12c-9.84,66.66-63.96,69.61-77.24,69.61-40.1,0-79.45-26.07-79.45-93.97,0-54.36,30.99-92,82.41-92,45.51,0,69.12,28.29,72.57,57.81h-23.12Z"/></g><g><path class="cls-3" d="M120.92,38.53c0,17.86-14.48,32.34-32.34,32.34s-32.34-14.48-32.34-32.34S70.71,6.19,88.57,6.19s32.34,14.48,32.34,32.34"/><path class="cls-3" d="M120.92,233.34c0,17.87-14.48,32.34-32.34,32.34s-32.34-14.48-32.34-32.34,14.48-32.34,32.34-32.34,32.34,14.48,32.34,32.34"/><path class="cls-3" d="M289.62,135.94c0,17.87-14.48,32.34-32.34,32.34s-32.35-14.48-32.35-32.34,14.48-32.34,32.35-32.34,32.34,14.48,32.34,32.34"/><path class="cls-2" d="M189.99,176.46c-7.06-11.88-11.21-25.71-11.21-40.52s4.15-28.64,11.21-40.52c15.77-26.5,30.25-25.46,39.06-40.71,8.93-15.47,3.63-35.24-11.83-44.17-15.47-8.93-35.25-3.63-44.18,11.84-8.8,15.25-.66,27.27-15.72,54.17-13.5,24.11-38.75,40.54-70.19,40.54-29.45,0-37.18-13.47-54.78-13.47S0,118.08,0,135.93s14.48,32.34,32.34,32.34,23.95-13.06,54.78-13.47c31.48,0,56.77,16.39,70.2,40.53,14.98,26.94,6.92,38.92,15.72,54.17,8.93,15.47,28.71,20.77,44.18,11.84,15.47-8.93,20.77-28.71,11.83-44.17-8.81-15.25-23.29-14.21-39.06-40.72"/></g></g><g><path class="cls-3" d="M370.63,255.03h-12.34v17.16h-9.9v-48.11h21.25c10.03,0,15.51,5.28,15.51,14.91s-5.68,16.04-14.52,16.04Zm-3.1-22.7h-9.24v14.45h9.24c5.28,0,7.72-2.31,7.72-7.19s-2.44-7.26-7.72-7.26Z"/><path class="cls-3" d="M413.13,272.98c-14.12,0-23.16-10.49-23.16-24.88s8.98-24.81,23.1-24.81,23.23,10.62,23.23,25.14-9.17,24.55-23.16,24.55Zm0-41.25c-7.99,0-13.26,6.67-13.26,16.37s5.28,16.43,13.26,16.43,13.26-6.34,13.26-16.17-5.15-16.63-13.26-16.63Z"/><path class="cls-3" d="M460.65,272.98c-12.27,0-19.93-5.61-19.93-15.9h9.64c0,5.15,4.09,7.99,10.82,7.99,6.01,0,9.7-2.11,9.7-6.14s-2.44-5.28-9.04-6.6l-6.73-1.32c-9.77-1.91-13.53-5.41-13.53-12.93,0-9.37,6.67-14.78,18.21-14.78s18.87,5.28,18.87,15.44h-9.24c0-4.88-3.83-7.52-10.1-7.52-5.08,0-8.32,2.31-8.32,5.94s2.05,4.88,9.11,6.27l7.52,1.45c8.91,1.72,12.74,5.28,12.74,12.87,0,9.77-7.33,15.25-19.73,15.25Z"/><path class="cls-3" d="M507.64,232.33v39.86h-9.9v-39.86h-14.58v-8.25h38.54v8.25h-14.06Z"/><path class="cls-3" d="M562.16,272.19l-1.19-6.6c-3.7,5.08-8.05,7.39-14.52,7.39-13,0-22.5-10.29-22.5-24.88s9.44-24.81,23.3-24.81c11.61,0,19.67,6.27,20.85,16.17h-9.31c-1.91-5.61-6.07-7.72-11.48-7.72-8.38,0-13.46,5.87-13.46,16.24s5.74,16.56,13.73,16.56c5.87,0,11.55-3.96,12.21-9.96h-10.96v-8.25h19.27v25.87h-5.94Z"/><path class="cls-3" d="M606.51,272.19c-1.25-2.31-1.52-3.76-1.52-8.25l.13-5.08c0-4.03-1.85-5.74-6.14-5.74h-11.35v19.07h-9.9v-48.11h25.8c8.51,0,12.93,5.54,12.93,13,0,5.87-2.71,9.77-8.12,11.88,6.14,2.64,6.4,3.3,6.67,17.49,0,2.11,.59,3.1,2.11,3.96v1.78h-10.62Zm-6.93-39.86h-11.94v12.54h11.94c5.61,0,7-2.11,7-6.4s-1.58-6.14-7-6.14Z"/><path class="cls-3" d="M625.26,272.19v-48.11h34.78v8.25h-24.88v10.89h23.03v8.25h-23.03v12.47h26.07v8.25h-35.97Z"/><path class="cls-3" d="M686.04,272.98c-12.27,0-19.93-5.61-19.93-15.9h9.64c0,5.15,4.09,7.99,10.82,7.99,6.01,0,9.7-2.11,9.7-6.14s-2.44-5.28-9.04-6.6l-6.73-1.32c-9.77-1.91-13.53-5.41-13.53-12.93,0-9.37,6.67-14.78,18.21-14.78s18.87,5.28,18.87,15.44h-9.24c0-4.88-3.83-7.52-10.1-7.52-5.08,0-8.32,2.31-8.32,5.94s2.05,4.88,9.11,6.27l7.52,1.45c8.91,1.72,12.74,5.28,12.74,12.87,0,9.77-7.33,15.25-19.73,15.25Z"/><path class="cls-3" d="M752.1,275.03l-5.68-5.35c-3.83,2.31-7.52,3.3-12.47,3.3-13.99,0-23.16-10.43-23.16-24.88s9.11-24.81,23.16-24.81,23.16,10.49,23.16,24.68c0,6.47-2.05,12.74-5.28,16.7l5.28,5.02-5.02,5.35Zm-18.15-43.29c-7.99,0-13.27,6.27-13.27,16.37s5.28,16.43,13.2,16.43c2.11,0,4.29-.46,5.81-1.25l-5.08-4.82,5.02-5.35,5.41,5.15c1.45-2.9,2.18-6.14,2.18-10.1,0-9.83-5.21-16.43-13.26-16.43Z"/><path class="cls-3" d="M764.51,272.19v-48.11h9.9v39.86h23.03v8.25h-32.93Z"/><path class="cls-3" d="M839.82,272.98c-12.27,0-19.93-5.61-19.93-15.9h9.64c0,5.15,4.09,7.99,10.82,7.99,6.01,0,9.7-2.11,9.7-6.14s-2.44-5.28-9.04-6.6l-6.73-1.32c-9.77-1.91-13.53-5.41-13.53-12.93,0-9.37,6.67-14.78,18.21-14.78s18.88,5.28,18.88,15.44h-9.24c0-4.88-3.83-7.52-10.1-7.52-5.08,0-8.32,2.31-8.32,5.94s2.05,4.88,9.11,6.27l7.52,1.45c8.91,1.72,12.74,5.28,12.74,12.87,0,9.77-7.32,15.25-19.73,15.25Z"/><path class="cls-3" d="M866.95,272.19v-48.11h34.78v8.25h-24.88v10.89h23.03v8.25h-23.03v12.47h26.07v8.25h-35.97Z"/><path class="cls-3" d="M939.74,272.19c-1.25-2.31-1.52-3.76-1.52-8.25l.13-5.08c0-4.03-1.85-5.74-6.14-5.74h-11.35v19.07h-9.9v-48.11h25.8c8.51,0,12.93,5.54,12.93,13,0,5.87-2.71,9.77-8.12,11.88,6.14,2.64,6.4,3.3,6.67,17.49,0,2.11,.59,3.1,2.11,3.96v1.78h-10.62Zm-6.93-39.86h-11.94v12.54h11.94c5.61,0,7-2.11,7-6.4s-1.58-6.14-7-6.14Z"/><path class="cls-3" d="M977.82,272.19h-8.38l-16.23-48.11h9.96l10.69,36.23,10.49-36.23h9.96l-16.5,48.11Z"/><path class="cls-3" d="M999.74,272.19v-48.11h9.9v48.11h-9.9Z"/><path class="cls-3" d="M1038.54,272.98c-13.4,0-21.78-9.37-21.78-24.81s8.45-24.88,22.04-24.88c10.82,0,19.2,6.01,20.06,17.09h-9.44c-1.45-6.2-4.95-8.65-10.29-8.65-7.79,0-12.47,5.94-12.47,16.57s4.49,16.37,12.14,16.37c6.14,0,10.03-2.77,10.62-8.91h9.63c-.59,11.02-8.58,17.22-20.52,17.22Z"/><path class="cls-3" d="M1066.66,272.19v-48.11h34.78v8.25h-24.88v10.89h23.03v8.25h-23.03v12.47h26.07v8.25h-35.97Z"/><path class="cls-3" d="M1127.44,272.98c-12.28,0-19.93-5.61-19.93-15.9h9.64c0,5.15,4.09,7.99,10.82,7.99,6.01,0,9.7-2.11,9.7-6.14s-2.44-5.28-9.04-6.6l-6.73-1.32c-9.77-1.91-13.53-5.41-13.53-12.93,0-9.37,6.67-14.78,18.21-14.78s18.87,5.28,18.87,15.44h-9.24c0-4.88-3.83-7.52-10.1-7.52-5.08,0-8.32,2.31-8.32,5.94s2.05,4.88,9.11,6.27l7.52,1.45c8.91,1.72,12.74,5.28,12.74,12.87,0,9.77-7.33,15.25-19.73,15.25Z"/><path class="cls-3" d="M1202.81,272.19l-3.04-3.7c-5.35,4.03-8.38,5.21-12.87,5.21-9.37,0-15.64-5.67-15.64-14.25,0-6.2,2.64-9.7,10.36-13.73-.4-.53-.66-.86-.79-.99l-1.85-2.24c-1.85-2.18-2.84-4.55-2.77-7,0-6.2,5.41-11.02,12.47-11.02s11.75,4.09,11.75,10.23c0,4.75-1.85,7.59-7.72,11.61l7.66,9.5c1.45-2.77,1.98-4.75,1.98-7.59v-.66h7.46v1.06c0,5.02-1.98,10.36-4.49,13.4l8.12,10.16h-10.62Zm-16.83-21.05l-3.1,1.91c-1.85,1.12-2.84,3.17-2.84,5.28,0,3.96,3.43,7.72,7,7.72,2.05,0,4.82-1.25,7.92-3.63l-8.98-11.28Zm2.77-19.47c-2.24,0-3.83,1.32-3.83,3.17,0,1.65,.33,2.18,3.63,6.33,2.64-1.45,3.96-3.37,3.96-5.68,0-2.44-1.39-3.83-3.76-3.83Z"/><path class="cls-3" d="M1255.55,272.98c-12.27,0-19.93-5.61-19.93-15.9h9.63c0,5.15,4.09,7.99,10.82,7.99,6.01,0,9.7-2.11,9.7-6.14s-2.44-5.28-9.04-6.6l-6.73-1.32c-9.77-1.91-13.53-5.41-13.53-12.93,0-9.37,6.67-14.78,18.21-14.78s18.88,5.28,18.88,15.44h-9.24c0-4.88-3.83-7.52-10.1-7.52-5.08,0-8.32,2.31-8.32,5.94s2.05,4.88,9.11,6.27l7.52,1.45c8.91,1.72,12.74,5.28,12.74,12.87,0,9.77-7.32,15.25-19.73,15.25Z"/><path class="cls-3" d="M1301.55,272.98c-11.02,0-19.07-5.68-19.07-17.03v-31.88h9.9v31.88c0,5.81,2.97,8.58,9.17,8.58s9.17-2.77,9.17-8.58v-31.88h9.9v31.88c0,11.35-8.05,17.03-19.07,17.03Z"/><path class="cls-3" d="M1352.3,255.03h-12.34v17.16h-9.9v-48.11h21.25c10.03,0,15.51,5.28,15.51,14.91s-5.68,16.04-14.52,16.04Zm-3.1-22.7h-9.24v14.45h9.24c5.28,0,7.72-2.31,7.72-7.19s-2.44-7.26-7.72-7.26Z"/><path class="cls-3" d="M1396.26,255.03h-12.34v17.16h-9.9v-48.11h21.25c10.03,0,15.51,5.28,15.51,14.91s-5.68,16.04-14.52,16.04Zm-3.1-22.7h-9.24v14.45h9.24c5.28,0,7.72-2.31,7.72-7.19s-2.44-7.26-7.72-7.26Z"/><path class="cls-3" d="M1438.76,272.98c-14.12,0-23.16-10.49-23.16-24.88s8.98-24.81,23.1-24.81,23.23,10.62,23.23,25.14-9.17,24.55-23.16,24.55Zm0-41.25c-7.99,0-13.26,6.67-13.26,16.37s5.28,16.43,13.26,16.43,13.26-6.34,13.26-16.17-5.15-16.63-13.26-16.63Z"/><path class="cls-3" d="M1498.29,272.19c-1.25-2.31-1.52-3.76-1.52-8.25l.13-5.08c0-4.03-1.85-5.74-6.14-5.74h-11.35v19.07h-9.9v-48.11h25.8c8.51,0,12.94,5.54,12.94,13,0,5.87-2.71,9.77-8.12,11.88,6.14,2.64,6.4,3.3,6.67,17.49,0,2.11,.59,3.1,2.11,3.96v1.78h-10.62Zm-6.93-39.86h-11.95v12.54h11.95c5.61,0,7-2.11,7-6.4s-1.58-6.14-7-6.14Z"/><path class="cls-3" d="M1537.23,232.33v39.86h-9.9v-39.86h-14.58v-8.25h38.54v8.25h-14.06Z"/></g></svg>