<svg width="917" height="146" viewBox="0 0 917 146" fill="none" xmlns="http://www.w3.org/2000/svg">
<path d="M19.5462 82.5408H83.3862C80.9862 64.1408 69.1462 52.6208 52.0262 52.6208C35.3862 52.6208 22.1062 64.9408 19.5462 82.5408ZM102.906 92.6208V97.5808H19.7062C23.0662 115.341 37.1462 127.181 55.3862 127.181C67.8662 127.181 79.3862 121.261 86.2662 112.941L98.7462 125.261C88.5062 138.381 73.1462 145.101 54.5862 145.101C23.0662 145.101 0.186172 122.701 0.186172 89.9008C0.186172 58.3808 22.5862 34.7008 52.5062 34.7008C83.3862 34.7008 102.906 57.2608 102.906 92.6208ZM129.367 35.5008V98.7008C129.367 118.701 139.447 127.821 155.927 127.821C173.687 127.821 187.927 112.941 187.927 92.7808V35.5008H206.327V144.301H189.527L187.927 123.181V122.061C182.647 132.301 171.447 145.101 148.407 145.101C126.167 145.101 110.967 131.181 110.967 105.901V35.5008H129.367ZM217.72 144.301V35.5008H234.52L236.12 56.1408C241.88 42.2208 253.24 34.7008 268.6 34.7008C272.44 34.7008 275.96 35.0208 279.16 35.5008L277.72 53.5808C274.68 52.7808 271.16 52.4608 266.36 52.4608C247 52.4608 236.12 68.3008 236.12 91.6608V144.301H217.72ZM278.311 89.9008C278.311 56.7808 300.071 34.7008 332.551 34.7008C365.191 34.7008 386.791 56.7808 386.791 89.9008C386.791 123.021 365.191 145.101 332.551 145.101C300.071 145.101 278.311 123.021 278.311 89.9008ZM297.031 89.7408C297.031 112.141 311.591 127.021 332.551 127.021C353.671 127.021 368.071 112.141 368.071 89.7408C368.071 67.6608 353.671 52.7808 332.551 52.7808C311.591 52.7808 297.031 67.6608 297.031 89.7408Z" fill="#FF0831"/>
<path d="M471.711 144.301V86.7008C471.711 64.1408 461.311 51.9808 443.711 51.9808C426.911 51.9808 413.151 69.1008 413.151 88.9408V144.301H394.751V35.5008H411.551L413.151 56.6208V59.5008C418.271 48.3008 428.671 34.7008 449.631 34.7008C473.631 34.7008 490.111 51.6608 490.111 76.9408V144.301H471.711ZM498.467 89.9008C498.467 56.7808 520.227 34.7008 552.707 34.7008C585.347 34.7008 606.947 56.7808 606.947 89.9008C606.947 123.021 585.347 145.101 552.707 145.101C520.227 145.101 498.467 123.021 498.467 89.9008ZM517.187 89.7408C517.187 112.141 531.747 127.021 552.707 127.021C573.827 127.021 588.227 112.141 588.227 89.7408C588.227 67.6608 573.827 52.7808 552.707 52.7808C531.747 52.7808 517.187 67.6608 517.187 89.7408ZM697.147 97.5808V85.5808C697.147 68.1408 682.907 52.4608 664.987 52.4608C647.067 52.4608 632.027 67.6608 632.027 89.7408C632.027 112.141 646.427 127.341 665.307 127.341C684.027 127.341 697.147 115.341 697.147 97.5808ZM698.747 144.301L697.307 127.501C691.707 136.301 681.307 145.101 662.427 145.101C634.107 145.101 613.307 123.021 613.307 89.9008C613.307 56.7808 634.427 34.7008 661.307 34.7008C680.187 34.7008 690.907 44.1408 697.147 53.9008V0.300776H715.547V144.301H698.747ZM744.702 82.5408H808.542C806.142 64.1408 794.302 52.6208 777.182 52.6208C760.542 52.6208 747.262 64.9408 744.702 82.5408ZM828.062 92.6208V97.5808H744.862C748.222 115.341 762.302 127.181 780.542 127.181C793.022 127.181 804.542 121.261 811.422 112.941L823.902 125.261C813.662 138.381 798.302 145.101 779.742 145.101C748.222 145.101 725.342 122.701 725.342 89.9008C725.342 58.3808 747.742 34.7008 777.662 34.7008C808.542 34.7008 828.062 57.2608 828.062 92.6208ZM916.161 115.181C916.161 132.781 900.481 145.101 876.641 145.101C858.721 145.101 844.321 137.581 834.561 127.021L843.841 112.781C851.361 120.781 861.761 128.141 876.801 128.141C889.761 128.141 897.441 122.221 897.441 114.221C897.441 90.5408 836.801 104.941 836.801 67.1808C836.801 47.9808 853.121 34.7008 874.721 34.7008C892.001 34.7008 905.761 42.0608 914.881 53.9008L902.721 65.4208C895.841 56.6208 884.961 52.1408 873.761 52.1408C862.721 52.1408 855.041 58.7008 855.041 67.0208C855.041 89.1008 916.161 75.5008 916.161 115.181Z" fill="black"/>
</svg>
