<?xml version="1.0" encoding="us-ascii" standalone="no"?><svg xmlns="http://www.w3.org/2000/svg" xmlns:xlink="http://www.w3.org/1999/xlink" contentStyleType="text/css" height="411px" preserveAspectRatio="none" style="width:315px;height:411px;" version="1.1" viewBox="0 0 315 411" width="315px" zoomAndPan="magnify"><defs/><g><!--cluster PostgreSQL--><g id="cluster_PostgreSQL"><path d="M6,16 C6,6 152,6 152,6 C152,6 298,6 298,16 L298,309.14 C298,319.14 152,319.14 152,319.14 C152,319.14 6,319.14 6,309.14 L6,16 " fill="none" style="stroke:#E7E7E7;stroke-width:1.0;"/><path d="M6,16 C6,26 152,26 152,26 C152,26 298,26 298,16 " fill="none" style="stroke:#E7E7E7;stroke-width:1.0;"/><text fill="#FFFFFF" font-family="sans-serif" font-size="14" font-weight="bold" lengthAdjust="spacing" textLength="81.375" x="111.3125" y="42.9659">PostgreSQL</text></g><!--cluster public--><g id="cluster_public"><polygon fill="none" points="30,77,40,67,150,67,150,155.07,140,165.07,30,165.07,30,77" style="stroke:#E7E7E7;stroke-width:1.0;"/><line style="stroke:#E7E7E7;stroke-width:1.0;" x1="140" x2="150" y1="77" y2="67"/><line style="stroke:#E7E7E7;stroke-width:1.0;" x1="30" x2="140" y1="77" y2="77"/><line style="stroke:#E7E7E7;stroke-width:1.0;" x1="140" x2="140" y1="77" y2="165.07"/><text fill="#FFFFFF" font-family="sans-serif" font-size="14" font-weight="bold" lengthAdjust="spacing" textLength="44.625" x="63.6875" y="94.9659">public</text></g><!--cluster API--><g id="cluster_API"><polygon fill="none" points="68,199.07,78,189.07,236,189.07,236,285.14,226,295.14,68,295.14,68,199.07" style="stroke:#E7E7E7;stroke-width:1.0;"/><line style="stroke:#E7E7E7;stroke-width:1.0;" x1="226" x2="236" y1="199.07" y2="189.07"/><line style="stroke:#E7E7E7;stroke-width:1.0;" x1="68" x2="226" y1="199.07" y2="199.07"/><line style="stroke:#E7E7E7;stroke-width:1.0;" x1="226" x2="226" y1="199.07" y2="295.14"/><text fill="#FFFFFF" font-family="sans-serif" font-size="20" font-weight="bold" lengthAdjust="spacing" textLength="29.875" x="133.0625" y="223.45">api</text></g><!--entity tables_public--><g id="elem_tables_public"><rect fill="#313139" height="39.0679" rx="2.5" ry="2.5" style="stroke:#E7E7E7;stroke-width:0.5;" width="61" x="69.5" y="110"/><text fill="#FFFFFF" font-family="sans-serif" font-size="14" lengthAdjust="spacing" textLength="41" x="79.5" y="134.9659">tables</text></g><!--entity extensions--><g id="elem_extensions"><polygon fill="none" points="165.81,115,175.81,105,282.185,105,282.185,144.0679,272.185,154.0679,165.81,154.0679,165.81,115" style="stroke:#E7E7E7;stroke-width:1.0;"/><line style="stroke:#E7E7E7;stroke-width:1.0;" x1="272.185" x2="282.185" y1="115" y2="105"/><line style="stroke:#E7E7E7;stroke-width:1.0;" x1="165.81" x2="272.185" y1="115" y2="115"/><line style="stroke:#E7E7E7;stroke-width:1.0;" x1="272.185" x2="272.185" y1="115" y2="154.0679"/><text fill="#FFFFFF" font-family="sans-serif" font-size="14" font-weight="bold" lengthAdjust="spacing" textLength="76.375" x="180.81" y="139.9659">extensions</text></g><!--entity vf_api--><g id="elem_vf_api"><rect fill="#313139" height="39.0679" rx="2.5" ry="2.5" style="stroke:#E7E7E7;stroke-width:0.5;" width="136" x="84" y="240.07"/><text fill="#FFFFFF" font-family="sans-serif" font-size="14" lengthAdjust="spacing" textLength="116" x="94" y="265.0359">views + functions</text></g><!--entity PostgREST--><g id="elem_PostgREST"><ellipse cx="152" cy="371.14" fill="#313139" rx="8" ry="8" style="stroke:#E7E7E7;stroke-width:0.5;"/><text fill="#FFFFFF" font-family="sans-serif" font-size="14" lengthAdjust="spacing" textLength="70" x="117" y="403.1059">PostgREST</text></g><!--reverse link tables_public to vf_api--><g id="link_tables_public_vf_api"><path d="M107.25,155.29 C107.25,179.74 107.25,215.13 107.25,239.67 " fill="none" id="tables_public-backto-vf_api" style="stroke:#E7E7E7;stroke-width:1.0;"/><polygon fill="#E7E7E7" points="107.25,149.29,103.25,158.29,107.25,154.29,111.25,158.29,107.25,149.29" style="stroke:#E7E7E7;stroke-width:1.0;"/></g><!--reverse link extensions to vf_api--><g id="link_extensions_vf_api"><path d="M192.91,160.31 C192.91,185.07 192.91,216.68 192.91,239.61 " fill="none" id="extensions-backto-vf_api" style="stroke:#E7E7E7;stroke-width:1.0;"/><polygon fill="#E7E7E7" points="192.91,154.31,188.91,163.31,192.91,159.31,196.91,163.31,192.91,154.31" style="stroke:#E7E7E7;stroke-width:1.0;"/></g><!--link vf_api to PostgREST--><g id="link_vf_api_PostgREST"><path d="M152,285.55 C152,309.98 152,338.34 152,356.18 " fill="none" id="vf_api-PostgREST" style="stroke:#E7E7E7;stroke-width:3.0;"/><polygon fill="#E7E7E7" points="152,279.55,148,288.55,152,284.55,156,288.55,152,279.55" style="stroke:#E7E7E7;stroke-width:3.0;"/><polygon fill="#E7E7E7" points="152,362.18,156,353.18,152,357.18,148,353.18,152,362.18" style="stroke:#E7E7E7;stroke-width:3.0;"/></g><!--SRC=[KypCIyufJKbLqDFJBqxEqCqipjShpSq10000]--></g></svg>